<svg width="14" height="14" viewBox="0 0 14 14" fill="none" xmlns="http://www.w3.org/2000/svg">
<path d="M1.95585 5.22108C2.33588 3.60092 3.60092 2.33588 5.22109 1.95584C6.39115 1.68139 7.60885 1.68138 8.77891 1.95584C10.3991 2.33588 11.6641 3.60092 12.0442 5.22109C12.3186 6.39115 12.3186 7.60885 12.0442 8.77891C11.6641 10.3991 10.3991 11.6641 8.77891 12.0442C7.60885 12.3186 6.39115 12.3186 5.22109 12.0442C3.60092 11.6641 2.33588 10.3991 1.95585 8.77892C1.68138 7.60885 1.68138 6.39115 1.95585 5.22108Z" fill="white" fill-opacity="0.15" stroke="#6464DE"/>
<path fill-rule="evenodd" clip-rule="evenodd" d="M8.45858 8.45833L6.80273 7.40478V5.25" fill="white" fill-opacity="0.15"/>
<path d="M8.45858 8.45833L6.80273 7.40478V5.25" stroke="#6464DE" stroke-linecap="round" stroke-linejoin="round"/>
</svg>
