<svg width="14" height="14" viewBox="0 0 14 14" fill="none" xmlns="http://www.w3.org/2000/svg">
<path d="M1.68282 5.16177C2.0752 3.58157 3.32818 2.35978 4.9175 2.00761L5.18226 1.94894C6.37936 1.68368 7.61999 1.68369 8.8171 1.94895L9.08185 2.00761C10.6712 2.35978 11.9241 3.58157 12.3165 5.16177C12.6163 6.36892 12.6163 7.63108 12.3165 8.83823C11.9241 10.4184 10.6712 11.6402 9.08185 11.9924L8.81709 12.0511C7.61999 12.3163 6.37936 12.3163 5.18226 12.0511L4.9175 11.9924C3.32818 11.6402 2.0752 10.4184 1.68282 8.83823C1.38307 7.63108 1.38307 6.36892 1.68282 5.16177Z" fill="white" fill-opacity="0.15" stroke="#6464DE"/>
<path fill-rule="evenodd" clip-rule="evenodd" d="M7.00014 4.08301C7.22318 4.08301 7.40399 4.25333 7.40399 4.46344V4.77469H7.44872C8.19976 4.77469 8.75 5.38976 8.75 6.07739C8.75 6.28749 8.56919 6.45782 8.34615 6.45782C8.12312 6.45782 7.94231 6.28749 7.94231 6.07739C7.94231 5.7463 7.68896 5.53556 7.44872 5.53556H7.40399V6.73324L7.94925 6.92002C8.44474 7.08975 8.75 7.55136 8.75 8.04024C8.75 8.66252 8.2513 9.22462 7.56385 9.22462H7.40399V9.53591C7.40399 9.74602 7.22318 9.91634 7.00014 9.91634C6.77711 9.91634 6.5963 9.74602 6.5963 9.53591V9.22462H6.55128C5.80025 9.22462 5.25 8.60954 5.25 7.92192C5.25 7.71181 5.43081 7.54148 5.65385 7.54148C5.87688 7.54148 6.05769 7.71181 6.05769 7.92192C6.05769 8.253 6.31104 8.46375 6.55128 8.46375H6.5963V7.26617L6.05075 7.07929C5.55526 6.90955 5.25 6.44795 5.25 5.95907C5.25 5.33679 5.7487 4.77469 6.43615 4.77469H6.5963V4.46344C6.5963 4.25333 6.77711 4.08301 7.00014 4.08301ZM6.5963 5.53556H6.43615C6.25949 5.53556 6.05769 5.69333 6.05769 5.95907C6.05769 6.16228 6.18337 6.31511 6.32677 6.36423L6.5963 6.45656V5.53556ZM7.40399 7.54285V8.46375H7.56385C7.74051 8.46375 7.94231 8.30597 7.94231 8.04024C7.94231 7.83703 7.81663 7.6842 7.67323 7.63508L7.40399 7.54285Z" fill="#6464DE"/>
</svg>
