<svg width="22" height="22" viewBox="0 0 22 22" fill="none" xmlns="http://www.w3.org/2000/svg">
<path d="M11 8.25C10.2721 8.2548 9.57545 8.54608 9.06077 9.06077C8.54608 9.57545 8.2548 10.2721 8.25 11C8.25 12.5052 9.49483 13.75 11 13.75C12.5043 13.75 13.75 12.5052 13.75 11C13.75 9.49575 12.5043 8.25 11 8.25Z" fill="#6464DE"/>
<path d="M10.9999 4.58301C4.00294 4.58301 1.90011 10.6486 1.88086 10.71L1.78369 10.9997L1.87994 11.2893C1.90011 11.3508 4.00294 17.4163 10.9999 17.4163C17.9968 17.4163 20.0996 11.3508 20.1189 11.2893L20.216 10.9997L20.1198 10.71C20.0996 10.6486 17.9968 4.58301 10.9999 4.58301ZM10.9999 15.583C6.09477 15.583 4.19452 12.0575 3.73436 10.9997C4.19636 9.93817 6.09752 6.41634 10.9999 6.41634C15.9049 6.41634 17.8052 9.94184 18.2654 10.9997C17.8034 12.0612 15.9022 15.583 10.9999 15.583Z" fill="#6464DE"/>
</svg>
