<svg width="14" height="14" viewBox="0 0 14 14" fill="none" xmlns="http://www.w3.org/2000/svg">
<path d="M9.9165 1.75033C9.9165 1.42774 9.65517 1.16699 9.33317 1.16699C9.01117 1.16699 8.74984 1.42774 8.74984 1.75033H5.24984C5.24984 1.42774 4.9885 1.16699 4.6665 1.16699C4.3445 1.16699 4.08317 1.42774 4.08317 1.75033C2.47492 1.75033 1.1665 3.05874 1.1665 4.66699V9.91699C1.1665 11.5252 2.47492 12.8337 4.08317 12.8337H9.9165C11.5248 12.8337 12.8332 11.5252 12.8332 9.91699V4.66699C12.8332 3.05874 11.5248 1.75033 9.9165 1.75033ZM4.08317 2.91699V3.50033C4.08317 3.82291 4.3445 4.08366 4.6665 4.08366C4.9885 4.08366 5.24984 3.82291 5.24984 3.50033V2.91699H8.74984V3.50033C8.74984 3.82291 9.01117 4.08366 9.33317 4.08366C9.65517 4.08366 9.9165 3.82291 9.9165 3.50033V2.91699C10.8813 2.91699 11.6665 3.70216 11.6665 4.66699H2.33317C2.33317 3.70216 3.11834 2.91699 4.08317 2.91699ZM9.9165 11.667H4.08317C3.11834 11.667 2.33317 10.8818 2.33317 9.91699V5.83366H11.6665V9.91699C11.6665 10.8818 10.8813 11.667 9.9165 11.667ZM9.9165 7.58366C9.9165 7.90566 9.65517 8.16699 9.33317 8.16699C9.01117 8.16699 8.74984 7.90566 8.74984 7.58366C8.74984 7.26166 9.01117 7.00033 9.33317 7.00033C9.65517 7.00033 9.9165 7.26166 9.9165 7.58366ZM7.58317 7.58366C7.58317 7.90566 7.32184 8.16699 6.99984 8.16699C6.67784 8.16699 6.4165 7.90566 6.4165 7.58366C6.4165 7.26166 6.67784 7.00033 6.99984 7.00033C7.32184 7.00033 7.58317 7.26166 7.58317 7.58366ZM5.24984 7.58366C5.24984 7.90566 4.9885 8.16699 4.6665 8.16699C4.3445 8.16699 4.08317 7.90566 4.08317 7.58366C4.08317 7.26166 4.3445 7.00033 4.6665 7.00033C4.9885 7.00033 5.24984 7.26166 5.24984 7.58366ZM9.9165 9.91699C9.9165 10.239 9.65517 10.5003 9.33317 10.5003C9.01117 10.5003 8.74984 10.239 8.74984 9.91699C8.74984 9.59499 9.01117 9.33366 9.33317 9.33366C9.65517 9.33366 9.9165 9.59499 9.9165 9.91699ZM7.58317 9.91699C7.58317 10.239 7.32184 10.5003 6.99984 10.5003C6.67784 10.5003 6.4165 10.239 6.4165 9.91699C6.4165 9.59499 6.67784 9.33366 6.99984 9.33366C7.32184 9.33366 7.58317 9.59499 7.58317 9.91699ZM5.24984 9.91699C5.24984 10.239 4.9885 10.5003 4.6665 10.5003C4.3445 10.5003 4.08317 10.239 4.08317 9.91699C4.08317 9.59499 4.3445 9.33366 4.6665 9.33366C4.9885 9.33366 5.24984 9.59499 5.24984 9.91699Z" fill="#6464DE"/>
</svg>
