<svg width="14" height="14" viewBox="0 0 14 14" fill="none" xmlns="http://www.w3.org/2000/svg">
<path d="M7.729 9.62533C7.729 10.0278 7.40234 10.3545 6.99984 10.3545C6.59734 10.3545 6.27067 10.0278 6.27067 9.62533C6.27067 9.22283 6.59734 8.89616 6.99984 8.89616C7.40234 8.89616 7.729 9.22283 7.729 9.62533ZM6.99984 6.27116C6.59734 6.27116 6.27067 6.59783 6.27067 7.00033C6.27067 7.40283 6.59734 7.72949 6.99984 7.72949C7.40234 7.72949 7.729 7.40283 7.729 7.00033C7.729 6.59783 7.40234 6.27116 6.99984 6.27116ZM6.99984 3.64616C6.59734 3.64616 6.27067 3.97283 6.27067 4.37533C6.27067 4.77783 6.59734 5.10449 6.99984 5.10449C7.40234 5.10449 7.729 4.77783 7.729 4.37533C7.729 3.97283 7.40234 3.64616 6.99984 3.64616ZM12.8332 7.00033C12.8332 10.2168 10.2163 12.8337 6.99984 12.8337C3.78334 12.8337 1.1665 10.2168 1.1665 7.00033C1.1665 3.78383 3.78334 1.16699 6.99984 1.16699C10.2163 1.16699 12.8332 3.78383 12.8332 7.00033ZM11.6665 7.00033C11.6665 4.42724 9.57292 2.33366 6.99984 2.33366C4.42675 2.33366 2.33317 4.42724 2.33317 7.00033C2.33317 9.57341 4.42675 11.667 6.99984 11.667C9.57292 11.667 11.6665 9.57341 11.6665 7.00033Z" fill="#6464DE"/>
</svg>
