<svg width="18" height="18" viewBox="0 0 18 18" fill="none" xmlns="http://www.w3.org/2000/svg">
<path d="M14.0083 9.20357L14.0083 9.20359C13.7299 9.48189 13.2785 9.48189 13.0001 9.20359C12.7215 8.92586 12.7218 8.47384 13.0001 8.19567C13.0001 8.19566 13.0001 8.19565 13.0001 8.19564L14.3799 6.81569L14.38 6.81566C15.26 5.936 15.26 4.50321 14.38 3.62355C13.5284 2.77234 12.0386 2.77234 11.187 3.62355L8.6666 6.14361L8.66659 6.14363C8.57129 6.23888 8.50557 6.31824 8.46149 6.38656L8.45657 6.39418L8.45635 6.39402C7.77727 7.31879 7.87452 8.54393 8.66659 9.33638C8.6666 9.3364 8.66662 9.33642 8.66663 9.33643M14.0083 9.20357L7.76518 10.2383C7.87473 10.3485 8.01882 10.4032 8.16289 10.4032C8.30695 10.4032 8.45099 10.3478 8.56054 10.2383C8.78039 10.0185 8.78039 9.66222 8.56054 9.44247L8.66663 9.33643M14.0083 9.20357L15.3882 7.82359C16.8243 6.38729 16.8244 4.05204 15.389 2.61644L15.3889 2.61641C14.693 1.92082 13.768 1.5375 12.7842 1.5375C11.8005 1.5375 10.8747 1.92079 10.1795 2.61647L7.65914 5.1364C7.65914 5.13641 7.65913 5.13641 7.65913 5.13642C7.4993 5.29618 7.37014 5.45085 7.28579 5.58209C6.2093 7.04958 6.36719 9.05202 7.65893 10.3441M14.0083 9.20357L7.65893 10.3441M8.66663 9.33643C8.94505 9.61477 8.94503 10.066 8.66659 10.3443C8.52798 10.4829 8.3454 10.5532 8.16289 10.5532C7.98092 10.5532 7.79798 10.484 7.65893 10.3441M8.66663 9.33643L7.65893 10.3441M9.866 11.0215L9.86604 11.0216C10.1661 10.1853 9.96296 9.28787 9.33917 8.66362C9.33915 8.6636 9.33913 8.66358 9.33911 8.66356M9.866 11.0215L9.44521 7.76175C9.22536 7.98075 9.22536 8.33778 9.44521 8.55753L9.33911 8.66356M9.866 11.0215L9.8649 11.0249C9.76559 11.3233 9.5845 11.6112 9.33917 11.8564L9.33915 11.8564L6.81876 14.3765C5.96717 15.2277 4.47742 15.2277 3.62583 14.3765C2.74576 13.4968 2.74576 12.064 3.62583 11.1843L3.62586 11.1843L5.0057 9.80436C5.00571 9.80435 5.00572 9.80434 5.00573 9.80433C5.28416 9.526 5.28415 9.07473 5.0057 8.79641C4.72727 8.51811 4.2759 8.51811 3.99748 8.79641L3.99745 8.79643L2.61761 10.1764C1.18137 11.612 1.18137 13.948 2.61761 15.3836C3.31282 16.0792 4.23864 16.4625 5.2223 16.4625C6.20603 16.4625 7.13108 16.0792 7.82699 15.3836L7.827 15.3836L10.3474 12.8636C10.7457 12.4655 11.0466 11.9867 11.2122 11.4896C11.6888 10.1623 11.3498 8.6583 10.3474 7.65639C10.069 7.37733 9.61762 7.3774 9.33922 7.6556M9.866 11.0215L9.33922 7.6556M9.33911 8.66356C9.06085 8.38536 9.06056 7.93332 9.33922 7.6556M9.33911 8.66356L9.33922 7.6556" fill="#6464DE" stroke="#6464DE" stroke-width="0.3"/>
</svg>
