<svg width="16" height="16" viewBox="0 0 16 16" fill="none" xmlns="http://www.w3.org/2000/svg">
<path d="M9.33333 6.66699C9.33333 7.40033 8.73333 8.00033 8 8.00033C7.26667 8.00033 6.66667 7.40033 6.66667 6.66699C6.66667 5.93366 7.26667 5.33366 8 5.33366C8.73333 5.33366 9.33333 5.93366 9.33333 6.66699ZM13 6.66699C13 10.7203 9.88667 13.2603 8.55333 14.1603C8.38667 14.2803 8.19333 14.3337 8 14.3337C7.80667 14.3337 7.61334 14.2803 7.44 14.1603C6.10667 13.2603 3 10.727 3 6.66699C3 3.81366 5.14667 1.66699 8 1.66699C10.8467 1.66699 13 3.81366 13 6.66699ZM10.6667 6.66699C10.6667 5.19366 9.47333 4.00033 8 4.00033C6.52667 4.00033 5.33333 5.19366 5.33333 6.66699C5.33333 8.14033 6.52667 9.33366 8 9.33366C9.47333 9.33366 10.6667 8.14033 10.6667 6.66699Z" fill="#6464DD"/>
</svg>
