<svg width="280" height="280" viewBox="0 0 280 280" fill="none" xmlns="http://www.w3.org/2000/svg">
<path d="M140.856 44.3708C140.856 44.3708 147.124 84.7506 214.692 85.8651C274.699 86.8547 255.628 158.352 234.327 180.834C206.735 209.957 152.659 202.339 149.821 236.237C146.983 270.135 70.7487 256.975 72.0471 205.865C73.6624 142.288 38.8986 161.62 21.2995 144.614C8.66853 132.408 13.0101 75.9086 53.0459 69.4402C86.7351 63.9972 84.9885 49.6986 87.6671 39.1134C91.5296 23.8474 130.585 10.0186 140.856 44.3708Z" fill="#F7F7F8"/>
<path d="M190.8 178.518C190.803 179.34 190.643 180.155 190.33 180.916C190.018 181.676 189.558 182.368 188.977 182.951C188.397 183.533 187.707 183.996 186.948 184.311C186.188 184.627 185.374 184.789 184.551 184.79L84.3264 184.993C83.5041 184.995 82.6895 184.835 81.9292 184.522C81.1688 184.209 80.4776 183.75 79.895 183.169C79.3125 182.589 78.8501 181.899 78.5343 181.14C78.2185 180.381 78.0554 179.567 78.0544 178.745L77.9136 108.274L133.39 73.4459C133.638 73.2893 133.925 73.2055 134.219 73.2041C134.512 73.2027 134.8 73.2838 135.05 73.438L189.359 107.24L190.659 108.047V109.174L190.8 178.518Z" fill="#707070"/>
<path d="M182.622 79.5117H85.3536C85.1216 79.5117 84.9336 79.6998 84.9336 79.9317V184.015C84.9336 184.247 85.1216 184.435 85.3536 184.435H182.622C182.854 184.435 183.042 184.247 183.042 184.015V79.9317C183.042 79.6998 182.854 79.5117 182.622 79.5117Z" fill="#6464DD"/>
<path d="M184.451 184.69L134.704 146.76C134.664 146.73 134.632 146.69 134.61 146.645C134.589 146.599 134.578 146.549 134.579 146.499C134.581 146.448 134.594 146.399 134.618 146.355C134.642 146.311 134.676 146.273 134.718 146.244L190.158 108.352C190.205 108.32 190.261 108.301 190.319 108.297C190.377 108.294 190.434 108.307 190.486 108.334C190.537 108.361 190.58 108.401 190.61 108.45C190.64 108.5 190.655 108.557 190.656 108.615L190.796 178.484C190.799 180.125 190.158 181.702 189.01 182.875C187.863 184.049 186.301 184.725 184.66 184.759C184.584 184.76 184.511 184.736 184.451 184.69V184.69Z" fill="#EFEFFB"/>
<path d="M84.4105 184.89L134.005 146.762C134.045 146.732 134.077 146.692 134.099 146.646C134.12 146.601 134.131 146.551 134.129 146.5C134.128 146.45 134.114 146.401 134.09 146.357C134.066 146.313 134.031 146.275 133.99 146.246L78.3992 108.576C78.3513 108.544 78.2955 108.525 78.2377 108.522C78.1799 108.519 78.1224 108.532 78.0713 108.559C78.0202 108.586 77.9775 108.626 77.9477 108.676C77.918 108.726 77.9023 108.782 77.9023 108.84L78.0423 178.709C78.0456 180.35 78.6929 181.925 79.8448 183.094C80.9968 184.263 82.5614 184.933 84.2023 184.96C84.2776 184.961 84.3509 184.936 84.4105 184.89Z" fill="#EFEFFB"/>
<path d="M184.543 184.76L84.3186 184.961C82.8024 184.959 81.3378 184.409 80.1953 183.413C79.0528 182.416 78.3095 181.039 78.1026 179.537C78.0685 179.281 78.0981 179.021 78.1888 178.779C78.2795 178.537 78.4285 178.321 78.6225 178.151L133.286 129.79C133.571 129.537 133.939 129.397 134.32 129.396C134.701 129.396 135.07 129.534 135.356 129.785L190.211 177.927C190.406 178.097 190.556 178.312 190.648 178.554C190.739 178.796 190.77 179.056 190.737 179.312C190.536 180.815 189.798 182.194 188.66 183.196C187.522 184.197 186.059 184.753 184.543 184.76V184.76Z" fill="#A0A0E2"/>
<path d="M109.831 105.351C111.777 105.351 113.355 103.248 113.355 100.653C113.355 98.0584 111.777 95.9551 109.831 95.9551C107.885 95.9551 106.308 98.0584 106.308 100.653C106.308 103.248 107.885 105.351 109.831 105.351Z" fill="#4C4C4C"/>
<path d="M159.161 105.351C161.107 105.351 162.685 103.248 162.685 100.653C162.685 98.0584 161.107 95.9551 159.161 95.9551C157.215 95.9551 155.638 98.0584 155.638 100.653C155.638 103.248 157.215 105.351 159.161 105.351Z" fill="#4C4C4C"/>
<path d="M147.808 120.928C147.689 120.929 147.572 120.898 147.468 120.841C147.364 120.783 147.277 120.7 147.214 120.599C147.177 120.541 143.345 114.621 134.438 113.879C130.731 113.571 127.213 114.603 123.986 116.948C122.547 117.982 121.268 119.223 120.192 120.63C120.085 120.781 119.923 120.883 119.74 120.915C119.558 120.946 119.371 120.904 119.22 120.798C119.068 120.692 118.965 120.531 118.932 120.349C118.9 120.167 118.94 119.979 119.046 119.827C119.104 119.743 120.512 117.752 123.121 115.846C126.589 113.312 130.543 112.15 134.554 112.484C144.189 113.287 148.233 119.59 148.4 119.857C148.467 119.963 148.503 120.085 148.507 120.21C148.51 120.335 148.48 120.458 148.419 120.568C148.359 120.677 148.27 120.768 148.163 120.831C148.055 120.895 147.932 120.928 147.807 120.929L147.808 120.928Z" fill="#4C4C4C"/>
</svg>
