<svg width="33" height="32" viewBox="0 0 33 32" fill="none" xmlns="http://www.w3.org/2000/svg">
<path d="M9.54329 9.99967C9.54329 6.32367 12.534 3.33301 16.21 3.33301C19.886 3.33301 22.8766 6.32367 22.8766 9.99967C22.8766 13.6757 19.886 16.6663 16.21 16.6663C12.534 16.6663 9.54329 13.6757 9.54329 9.99967ZM21.6993 18.0944C20.954 17.9051 20.1433 18.0118 19.4727 18.3851C17.4487 19.5104 14.9713 19.5104 12.9473 18.3851C12.2779 18.0131 11.466 17.9077 10.7206 18.0944C8.06462 18.7651 6.20996 21.1757 6.20996 23.9557V25.3037C6.20996 26.1544 6.4366 26.9863 6.86727 27.7116C7.21794 28.3009 7.87531 28.6676 8.58065 28.6676H23.838C24.5433 28.6676 25.2006 28.3023 25.5513 27.7103C25.9819 26.9863 26.2087 26.1544 26.2087 25.3037V23.9557C26.21 21.1757 24.3553 18.7651 21.6993 18.0944Z" fill="#6843EE"/>
</svg>
